{"glyphs":{":":{"x_min":0,"x_max":228,"ha":228,"o":"m 101 427 l 117 528 l 195 528 l 179 427 z m 32 0 l 49 101 l 127 101 l 111 0 z"},"$":{"x_min":0,"x_max":456,"ha":456,"o":"m 429 208 q 429 162 415 126 q 401 90 374 65 q 346 40 307 26 q 267 12 216 10 l 204 -68 l 158 -68 l 171 11 q 90 18 48 62 q 6 106 -5 184 l 61 202 q 65 175 75 154 q 84 132 99 117 q 113 103 134 94 q 155 85 182 83 l 221 324 q 190 334 163 347 q 136 360 116 380 q 96 399 84 428 q 72 456 72 497 q 72 542 89 576 q 106 609 134 632 q 163 654 200 665 q 237 676 277 676 l 287 740 l 333 740 l 321 673 q 354 668 380 656 q 406 644 424 625 q 441 606 453 582 q 464 559 468 531 l 406 509 q 397 548 374 573 q 351 597 311 604 l 276 388 q 305 379 332 365 q 359 351 381 329 q 403 308 416 278 q 429 249 429 208 z m 355 202 q 355 225 348 241 q 342 258 330 270 q 318 282 301 292 q 284 301 264 309 l 228 83 q 257 84 281 92 q 304 100 321 114 q 337 128 346 150 q 355 171 355 202 z m 146 497 q 146 478 151 463 q 157 449 168 438 q 179 427 196 419 q 212 411 233 403 l 266 605 q 233 604 211 595 q 188 586 174 572 q 159 558 152 539 q 146 520 146 497 z"},"?":{"x_min":0,"x_max":456,"ha":456,"o":"m 281 698 q 321 698 353 685 q 385 672 407 648 q 430 625 442 593 q 454 562 454 524 q 454 477 441 443 q 429 410 410 385 q 391 360 366 342 l 318 307 q 301 295 285 283 q 270 271 257 256 q 244 242 235 224 q 226 207 222 184 l 152 184 q 158 222 171 250 q 184 277 201 298 q 219 319 240 334 l 281 364 q 300 377 318 391 q 335 405 349 422 q 363 439 371 462 q 379 484 379 514 q 379 537 371 557 q 364 577 350 591 q 336 604 317 612 q 297 620 274 620 q 218 620 181 586 q 145 552 130 492 l 63 512 q 74 553 92 587 q 109 621 135 646 q 162 670 198 684 q 233 698 281 698 z m 120 0 l 135 98 l 213 98 l 198 0 z"},"<":{"x_min":0,"x_max":479,"ha":479,"o":"m 52 279 l 52 379 l 451 583 l 451 508 l 107 329 l 451 150 l 451 75 z"},"'":{"x_min":0,"x_max":157,"ha":157,"o":"m 138 472 l 81 472 l 106 688 l 181 688 z"},"=":{"x_min":0,"x_max":479,"ha":479,"o":"m 52 418 l 52 490 l 451 490 l 451 418 z m 52 168 l 52 240 l 451 240 l 451 168 z"},"a":{"x_min":0,"x_max":456,"ha":456,"o":"m 422 3 q 411 0 397 -3 q 384 -5 371 -5 q 334 -5 317 14 q 300 33 300 70 q 300 77 301 86 q 301 94 302 101 l 299 101 q 285 75 270 55 q 255 34 237 20 q 219 5 197 -2 q 174 -10 145 -10 q 113 -10 90 2 q 66 15 51 35 q 35 55 27 82 q 19 108 19 136 q 19 175 28 204 q 37 233 53 253 q 70 274 92 287 q 113 300 138 307 q 163 314 189 317 q 215 320 241 321 l 333 322 l 336 340 q 338 352 340 363 q 341 375 341 384 q 341 429 320 450 q 299 471 261 471 q 242 471 225 468 q 208 464 194 454 q 181 445 170 428 q 160 412 154 387 l 83 401 q 90 432 104 457 q 117 482 138 500 q 160 518 191 528 q 222 538 265 538 q 301 538 328 527 q 356 517 375 498 q 394 479 403 452 q 413 426 413 394 q 413 379 411 358 q 409 336 406 317 l 376 133 q 374 122 373 111 q 372 100 372 90 q 372 72 379 63 q 387 54 404 54 q 410 54 416 55 q 422 56 428 58 z m 324 262 l 244 260 q 228 259 211 258 q 194 256 177 252 q 161 247 146 239 q 130 231 119 218 q 108 205 101 186 q 95 167 95 140 q 95 124 99 109 q 104 94 112 83 q 121 71 134 64 q 147 57 165 57 q 199 57 225 72 q 251 86 270 108 q 288 129 299 155 q 310 180 313 201 z"},"L":{"x_min":0,"x_max":456,"ha":456,"o":"m 25 0 l 135 688 l 211 688 l 114 76 l 399 76 l 387 0 z"},"3":{"x_min":0,"x_max":456,"ha":456,"o":"m 227 388 q 241 388 258 390 q 274 392 291 397 q 307 402 322 412 q 336 422 348 437 q 359 453 366 475 q 373 497 373 528 q 373 549 367 567 q 361 585 349 598 q 338 611 322 619 q 305 626 284 626 q 236 626 202 596 q 167 566 154 512 l 83 519 q 106 610 159 654 q 212 698 288 698 q 325 698 354 687 q 384 675 405 654 q 426 632 438 601 q 449 570 449 530 q 449 492 438 461 q 428 430 409 407 q 390 384 363 370 q 335 355 301 350 l 301 348 q 354 335 383 297 q 412 259 412 199 q 412 156 399 118 q 387 80 362 52 q 337 23 299 7 q 261 -10 210 -10 q 165 -10 131 6 q 98 22 75 47 q 52 73 38 104 q 25 135 19 165 l 85 188 q 90 166 100 144 q 110 122 126 104 q 143 85 165 74 q 188 63 217 63 q 247 63 269 73 q 291 83 306 101 q 321 119 329 143 q 337 168 337 197 q 337 227 328 248 q 320 270 305 284 q 290 298 270 305 q 249 312 225 312 l 175 312 l 188 388 z"},";":{"x_min":0,"x_max":228,"ha":228,"o":"m 120 25 q 116 -1 111 -22 q 105 -43 99 -62 q 92 -80 83 -96 q 75 -112 64 -128 l 15 -128 q 38 -96 53 -64 q 68 -32 73 0 l 38 0 l 54 101 l 132 101 z m 106 427 l 122 528 l 200 528 l 185 427 z"},"J":{"x_min":0,"x_max":410,"ha":410,"o":"m 153 -10 q 89 -10 49 36 q 8 81 -2 167 l 65 184 q 75 126 97 96 q 119 66 159 66 q 183 66 201 77 q 219 87 231 107 q 244 126 252 154 q 260 182 266 215 l 329 612 l 212 612 l 224 688 l 417 688 l 339 207 q 332 158 317 118 q 303 78 281 49 q 259 21 227 6 q 196 -10 153 -10 z"},"V":{"x_min":0,"x_max":547,"ha":547,"o":"m 271 0 l 192 0 l 71 688 l 148 688 l 228 204 q 231 182 233 160 q 235 138 237 121 q 240 101 242 82 q 242 82 258 120 q 258 120 275 159 l 295 204 l 527 688 l 610 688 z"},"\"":{"x_min":0,"x_max":291,"ha":291,"o":"m 279 472 l 222 472 l 248 688 l 321 688 z m 131 472 l 75 472 l 100 688 l 174 688 z"},"7":{"x_min":0,"x_max":456,"ha":456,"o":"m 470 617 q 470 617 400 516 q 366 467 337 419 q 308 372 282 324 q 257 276 236 225 q 215 174 200 119 q 184 63 174 0 l 99 0 q 114 93 143 174 q 172 254 210 328 q 249 402 296 472 l 395 613 l 85 613 l 97 688 l 481 688 z"},"S":{"x_min":0,"x_max":547,"ha":547,"o":"m 247 -10 q 194 -10 156 2 q 117 13 89 35 q 62 58 46 90 q 30 123 23 165 l 94 183 q 100 153 111 130 q 122 108 140 93 q 159 78 187 71 q 214 63 252 63 q 292 63 323 70 q 354 77 376 92 q 397 107 409 132 q 421 157 421 193 q 421 218 414 236 q 407 253 390 267 q 374 281 345 294 q 316 306 273 321 q 238 333 207 347 q 176 361 153 383 q 129 404 116 434 q 102 464 102 508 q 102 560 121 595 q 140 631 172 654 q 204 677 245 688 q 286 698 330 698 q 378 698 415 688 q 451 677 476 657 q 501 638 517 611 q 532 584 538 553 l 469 528 q 463 551 452 570 q 441 588 425 601 q 408 614 384 621 q 361 628 330 628 q 288 628 259 619 q 230 611 213 595 q 195 580 187 559 q 179 538 179 513 q 179 486 187 469 q 195 452 212 439 q 229 427 255 417 q 281 407 316 396 q 351 384 384 370 q 417 355 442 334 q 468 312 483 280 q 499 248 499 199 q 499 99 437 44 q 375 -10 247 -10 z"},"}":{"x_min":0,"x_max":274,"ha":274,"o":"m 124 725 q 147 725 165 715 q 184 706 196 690 q 208 674 214 651 q 220 629 220 603 q 220 597 220 589 q 220 582 219 574 q 219 566 218 558 q 217 551 216 545 l 194 405 q 190 384 190 368 q 190 327 209 309 q 228 292 262 290 l 251 228 q 231 227 214 220 q 197 213 184 199 q 170 186 161 164 q 152 143 147 112 l 119 -64 q 108 -134 78 -171 q 47 -208 -10 -208 l -63 -208 l -54 -145 l -28 -145 q -9 -145 5 -138 q 19 -132 29 -119 q 39 -106 45 -87 q 51 -67 56 -40 l 83 134 q 87 159 97 179 q 106 200 119 215 q 131 231 147 242 q 164 252 181 257 l 181 258 q 153 267 137 291 q 121 315 121 354 q 121 367 123 382 l 147 538 q 147 538 149 554 q 150 562 151 569 l 152 585 q 152 592 152 598 q 153 627 139 644 q 125 662 94 662 l 75 662 l 85 725 z"},"Z":{"x_min":0,"x_max":501,"ha":501,"o":"m 433 0 l -16 0 l -5 70 l 417 612 l 110 612 l 123 688 l 524 688 l 513 620 l 91 76 l 445 76 z"},"x":{"x_min":0,"x_max":410,"ha":410,"o":"m 283 0 l 199 217 l 47 0 l -33 0 l 164 271 l 59 528 l 134 528 l 211 323 l 352 528 l 434 528 l 246 272 l 359 0 z"},")":{"x_min":0,"x_max":273,"ha":273,"o":"m -80 -207 q 34 -85 93 63 q 152 211 152 390 q 152 482 132 566 q 111 650 69 725 l 139 725 q 183 650 203 564 q 224 477 224 382 q 224 293 209 211 q 195 128 166 54 q 136 -21 92 -86 q 48 -152 -10 -207 z"},"&":{"x_min":0,"x_max":547,"ha":547,"o":"m 500 334 q 489 304 476 274 q 464 243 450 213 q 436 183 419 155 q 402 126 383 102 q 399 83 419 73 q 439 63 458 63 q 471 63 481 65 q 491 66 503 71 l 498 5 q 485 0 474 -3 q 463 -6 448 -6 q 418 -6 390 10 q 363 25 339 54 q 306 24 266 7 q 226 -10 176 -10 q 134 -10 103 5 q 72 20 52 44 q 32 69 23 102 q 13 135 13 171 q 13 215 24 248 q 36 281 57 307 q 79 333 111 353 q 144 374 185 394 q 180 418 177 447 q 174 475 174 506 q 174 546 185 581 q 195 615 216 639 q 236 664 266 678 q 296 692 333 692 q 361 692 384 683 q 407 673 424 656 q 440 640 449 616 q 458 593 458 564 q 458 535 450 512 q 442 489 429 470 q 415 451 396 436 q 377 421 355 408 q 333 395 309 383 l 259 358 q 266 333 275 307 q 283 282 293 257 q 304 232 317 206 q 330 181 346 154 q 362 176 376 201 q 390 227 402 253 q 415 280 426 307 q 437 334 447 361 z m 181 54 q 217 54 246 67 q 276 81 301 104 q 284 129 269 158 q 254 187 241 217 q 229 246 218 275 q 208 304 201 330 q 173 316 150 301 q 128 287 113 269 q 97 250 89 227 q 81 204 81 173 q 81 146 88 125 q 95 103 108 87 q 121 72 139 63 q 158 54 181 54 z m 237 508 q 237 486 239 464 q 241 442 245 421 q 245 421 304 448 q 332 461 352 477 q 373 492 385 512 q 396 532 396 561 q 396 577 392 590 q 387 603 378 613 q 370 622 358 627 q 346 633 331 633 q 310 633 292 625 q 275 617 263 602 q 250 586 244 563 q 237 540 237 508 z"},"_":{"x_min":0,"x_max":456,"ha":456,"o":"m -64 -122 l -64 -85 l 408 -85 l 408 -122 z"},"v":{"x_min":0,"x_max":410,"ha":410,"o":"m 203 0 l 118 0 l 45 528 l 120 528 l 160 185 q 160 185 163 158 q 164 143 165 126 q 167 110 167 94 q 168 79 169 69 l 180 95 l 192 126 l 206 157 l 217 184 l 371 528 l 449 528 z"},"O":{"x_min":0,"x_max":638,"ha":638,"o":"m 376 698 q 434 698 478 677 q 522 657 553 619 q 583 582 599 530 q 615 478 615 416 q 615 392 613 366 q 611 340 607 317 q 595 242 567 181 q 539 121 497 79 q 455 36 401 13 q 347 -10 284 -10 q 224 -10 179 11 q 134 33 104 71 q 75 109 60 163 q 44 216 44 280 q 44 302 46 326 q 48 349 52 373 q 64 446 92 506 q 120 566 162 609 q 204 652 258 675 q 312 698 376 698 z m 372 623 q 320 623 279 605 q 238 587 208 553 q 177 519 158 469 q 138 420 128 357 q 125 336 123 315 q 121 294 121 275 q 121 223 132 183 q 144 144 165 118 q 187 92 218 79 q 249 66 288 66 q 340 66 382 84 q 423 103 453 137 q 483 171 503 220 q 522 270 532 331 q 536 351 537 373 q 539 395 539 414 q 539 466 527 505 q 516 544 494 571 q 472 597 441 610 q 411 623 372 623 z"},"(":{"x_min":0,"x_max":273,"ha":273,"o":"m 342 725 q 229 603 170 455 q 111 307 111 128 q 111 35 131 -49 q 151 -133 194 -207 l 124 -207 q 80 -133 59 -46 q 39 41 39 136 q 39 224 53 307 q 68 389 97 464 q 126 538 170 604 q 214 669 272 725 z"},"C":{"x_min":0,"x_max":592,"ha":592,"o":"m 543 165 q 524 129 500 97 q 475 65 444 42 q 412 18 372 4 q 332 -10 280 -10 q 221 -10 177 13 q 132 35 103 74 q 74 113 60 165 q 45 218 45 278 q 45 338 56 393 q 67 448 87 494 q 107 541 136 579 q 165 617 201 643 q 237 669 280 684 q 322 698 371 698 q 422 698 461 684 q 500 669 528 646 q 555 623 572 592 q 588 562 596 530 l 524 503 q 519 526 506 547 q 493 568 474 585 q 455 602 428 612 q 401 622 367 622 q 308 622 262 596 q 217 570 185 524 q 154 478 137 414 q 121 351 121 276 q 121 230 131 192 q 142 153 162 125 q 183 97 214 82 q 245 66 285 66 q 321 66 351 78 q 381 90 406 110 q 431 129 451 155 q 471 181 486 208 z"},"W":{"x_min":0,"x_max":774,"ha":774,"o":"m 563 0 l 474 0 l 445 437 q 445 446 444 458 q 444 470 443 483 q 442 496 442 509 l 441 535 q 441 535 439 595 q 439 595 419 535 q 419 535 401 482 q 392 456 385 437 l 217 0 l 128 0 l 71 688 l 150 688 l 181 251 q 183 220 185 190 l 187 136 q 188 107 188 82 l 211 148 q 211 148 221 178 l 231 207 l 242 235 l 251 260 l 417 688 l 491 688 l 521 260 q 522 249 523 235 q 523 222 524 207 q 524 193 525 178 q 526 163 526 149 q 526 149 528 82 q 528 82 534 99 l 548 141 l 568 196 l 588 251 l 758 688 l 838 688 z"},"A":{"x_min":0,"x_max":547,"ha":547,"o":"m 425 0 l 395 201 l 139 201 l 43 0 l -41 0 l 299 688 l 386 688 l 503 0 z m 349 505 q 345 525 342 544 q 339 563 337 579 q 335 595 334 605 q 333 616 333 618 q 332 616 327 605 l 315 578 l 299 543 l 281 504 l 172 274 l 383 274 z"},"f":{"x_min":0,"x_max":228,"ha":228,"o":"m 174 464 l 100 0 l 28 0 l 102 464 l 41 464 l 51 528 l 112 528 l 122 588 q 126 617 134 642 q 142 667 156 685 q 170 704 192 714 q 215 725 249 725 q 262 725 275 723 q 289 722 299 719 l 289 652 q 285 653 281 653 q 276 654 271 655 q 265 655 260 656 q 256 656 252 656 q 237 656 227 650 q 216 645 210 635 q 203 625 199 610 q 195 595 192 576 l 185 528 l 269 528 l 258 464 z"},"Q":{"x_min":0,"x_max":638,"ha":638,"o":"m 372 698 q 429 698 474 677 q 519 657 549 619 q 580 582 595 530 q 611 478 611 416 q 611 392 609 366 q 607 340 604 317 q 593 250 568 194 q 544 138 509 96 q 474 55 428 29 q 383 2 329 -6 q 333 -38 340 -60 q 347 -82 358 -95 q 369 -108 384 -114 q 398 -119 416 -119 q 427 -119 441 -117 q 455 -115 465 -113 l 458 -178 q 443 -184 426 -186 q 410 -189 390 -189 q 356 -189 332 -177 q 309 -164 293 -141 q 277 -118 269 -84 q 260 -51 255 -8 q 202 -4 161 19 q 121 42 94 80 q 67 118 54 169 q 41 220 41 280 q 41 302 42 326 q 44 349 48 373 q 60 446 88 506 q 116 566 158 609 q 200 652 254 675 q 308 698 372 698 z m 368 623 q 316 623 275 605 q 234 587 204 553 q 173 519 154 469 q 134 420 124 357 q 121 336 119 315 q 117 294 117 275 q 117 223 128 183 q 140 144 161 118 q 182 92 213 79 q 244 66 284 66 q 336 66 377 84 q 418 103 448 137 q 479 171 499 220 q 519 270 528 331 q 532 351 533 373 q 535 395 535 414 q 535 466 523 505 q 512 544 490 571 q 468 597 438 610 q 407 623 368 623 z"},"w":{"x_min":0,"x_max":592,"ha":592,"o":"m 427 0 l 344 0 l 329 341 q 329 351 328 370 l 327 408 q 327 431 327 456 q 327 456 312 413 q 312 413 299 374 l 286 339 l 161 0 l 78 0 l 41 528 l 112 528 l 128 169 q 128 164 129 150 q 129 137 130 122 q 130 107 130 93 q 131 79 131 73 q 137 90 143 107 q 148 122 154 138 q 159 154 163 166 l 300 528 l 377 528 l 395 166 q 396 139 396 115 q 397 90 397 73 q 403 90 409 107 q 409 107 421 139 l 432 169 l 565 528 l 636 528 z"},"-":{"x_min":0,"x_max":273,"ha":273,"o":"m 42 227 l 54 305 l 254 305 l 242 227 z"},"E":{"x_min":0,"x_max":547,"ha":547,"o":"m 25 0 l 134 688 l 555 688 l 542 612 l 199 612 l 164 391 l 483 391 l 471 316 l 152 316 l 114 76 l 474 76 l 461 0 z"},"s":{"x_min":0,"x_max":410,"ha":410,"o":"m 363 155 q 363 113 350 82 q 336 51 311 31 q 286 10 250 0 q 215 -10 170 -10 q 133 -10 105 -2 q 77 6 57 21 q 37 36 23 58 q 10 80 2 109 l 61 136 q 67 117 76 101 q 86 86 100 75 q 113 65 132 60 q 151 54 177 54 q 202 54 224 59 q 245 64 260 76 q 276 87 284 104 q 293 122 293 147 q 293 167 285 180 q 278 194 264 205 q 250 215 230 224 q 210 233 186 243 q 160 253 137 265 q 113 277 95 294 q 78 312 67 335 q 57 358 57 389 q 57 429 71 457 q 85 485 109 503 q 133 521 166 529 q 198 537 234 537 q 267 537 294 530 q 321 523 342 508 q 362 493 375 469 q 389 446 394 412 l 328 400 q 319 438 295 456 q 271 473 229 473 q 208 473 189 469 q 170 465 156 456 q 143 447 134 433 q 126 419 126 399 q 126 379 134 365 q 142 352 155 342 q 169 332 188 323 q 188 323 232 306 q 255 297 278 286 q 302 274 321 257 q 339 239 351 215 q 363 190 363 155 z"},">":{"x_min":0,"x_max":479,"ha":479,"o":"m 52 75 l 52 150 l 396 329 l 52 508 l 52 583 l 451 379 l 451 279 z"},"l":{"x_min":0,"x_max":182,"ha":182,"o":"m 13 0 l 128 725 l 201 725 l 85 0 z"},"8":{"x_min":0,"x_max":456,"ha":456,"o":"m 282 698 q 320 698 352 686 q 383 674 405 653 q 427 631 439 601 q 451 570 451 533 q 451 499 442 469 q 433 439 417 417 q 400 394 376 378 q 353 363 323 358 l 323 356 q 343 349 360 336 q 376 323 388 305 q 400 287 407 263 q 414 240 414 211 q 414 164 400 123 q 387 83 360 53 q 333 24 293 7 q 253 -10 200 -10 q 155 -10 121 4 q 87 18 65 43 q 43 68 32 102 q 21 136 21 176 q 21 223 35 257 q 48 291 69 313 q 90 336 115 350 q 141 363 165 369 l 165 371 q 128 390 108 427 q 88 463 88 514 q 88 556 101 590 q 115 625 139 648 q 164 672 200 685 q 236 698 282 698 z m 264 396 q 298 396 320 409 q 342 422 355 442 q 368 461 372 485 q 377 509 377 531 q 377 579 351 605 q 324 632 273 632 q 249 632 228 624 q 208 617 192 601 q 177 585 168 562 q 160 538 160 504 q 160 485 165 466 q 170 446 183 431 q 195 416 215 406 q 234 396 264 396 z m 227 328 q 194 328 169 317 q 145 306 128 285 q 112 265 104 237 q 96 208 96 174 q 96 149 103 127 q 109 106 123 90 q 137 75 158 66 q 179 57 208 57 q 236 57 260 67 q 284 77 302 97 q 319 116 330 145 q 340 174 340 213 q 340 234 334 255 q 328 276 315 292 q 301 308 280 318 q 258 328 227 328 z"},"\\":{"x_min":0,"x_max":228,"ha":228,"o":"m 128 -10 l 59 725 l 118 725 l 189 -10 z"},"e":{"x_min":0,"x_max":456,"ha":456,"o":"m 103 246 q 101 232 100 218 q 99 204 99 190 q 99 125 126 91 q 152 56 206 56 q 228 56 247 63 q 265 70 280 82 q 295 94 306 110 q 318 126 326 144 l 381 113 q 371 91 356 69 q 342 47 321 30 q 299 12 269 1 q 239 -10 197 -10 q 157 -10 126 4 q 94 18 72 45 q 50 71 39 110 q 28 148 28 198 q 28 275 45 338 q 62 401 92 445 q 122 490 163 514 q 204 538 252 538 q 296 538 329 524 q 361 510 383 484 q 404 459 415 424 q 426 388 426 346 q 426 335 425 323 q 424 311 423 298 q 422 285 420 271 q 418 258 416 246 z m 353 313 q 354 323 354 331 q 354 340 354 348 q 354 380 347 404 q 339 428 326 443 q 313 458 295 466 q 276 473 254 473 q 235 473 214 466 q 192 459 173 441 q 153 423 137 392 q 121 361 112 313 z"},"b":{"x_min":0,"x_max":456,"ha":456,"o":"m 298 538 q 330 538 355 526 q 379 514 396 491 q 413 469 422 437 q 431 405 431 365 q 431 341 429 312 q 427 283 422 252 q 412 183 394 133 q 376 83 352 52 q 327 20 295 5 q 263 -10 223 -10 q 174 -10 143 16 q 112 41 99 87 l 98 87 q 96 74 93 60 l 88 33 q 85 20 83 11 q 82 2 81 0 l 12 0 q 13 4 15 15 l 20 40 l 25 72 q 28 90 31 109 l 129 725 l 201 725 l 168 518 q 166 504 164 491 q 161 479 159 469 l 155 450 l 156 450 q 171 473 186 489 q 201 506 218 517 q 235 528 254 533 q 274 538 298 538 z m 277 470 q 251 470 229 461 q 206 452 186 429 q 166 406 151 368 q 136 329 127 271 q 119 223 119 184 q 119 153 126 129 q 133 104 146 88 q 158 72 176 63 q 194 55 215 55 q 240 55 260 64 q 280 73 296 95 q 312 118 325 155 q 337 192 346 249 q 355 308 355 350 q 355 410 337 440 q 318 470 277 470 z"},"%":{"x_min":0,"x_max":729,"ha":729,"o":"m 170 0 l 104 0 l 579 688 l 646 688 z m 218 694 q 239 694 258 686 q 277 678 291 660 q 306 643 314 614 q 322 585 322 543 q 322 525 320 503 q 318 480 314 457 q 305 395 287 356 q 269 317 248 295 q 227 272 204 264 q 181 256 163 256 q 141 256 122 265 q 103 273 88 292 q 74 311 66 340 q 59 370 59 411 q 59 429 60 451 q 62 473 65 496 q 76 560 93 599 q 111 638 132 659 q 153 680 176 687 q 199 694 218 694 z m 218 641 q 203 641 189 635 q 175 630 162 614 q 150 597 140 568 q 129 539 122 491 q 114 439 114 404 q 114 356 127 333 q 140 311 164 311 q 178 311 192 317 q 205 323 218 340 q 230 356 240 386 q 250 415 258 461 q 266 516 266 552 q 266 599 254 620 q 241 641 218 641 z m 590 432 q 611 432 630 424 q 649 417 663 399 q 677 381 686 352 q 694 323 694 282 q 694 264 692 241 q 690 218 687 195 q 677 133 659 94 q 641 55 620 33 q 599 11 576 2 q 553 -6 535 -6 q 513 -6 494 3 q 475 12 460 31 q 446 49 438 79 q 430 108 430 149 q 430 167 432 189 q 434 211 437 234 q 447 298 465 337 q 483 376 504 397 q 525 418 548 425 q 570 432 590 432 z m 590 379 q 575 379 561 374 q 547 368 534 352 q 522 335 511 306 q 501 277 494 229 q 486 177 486 142 q 486 94 499 72 q 512 49 536 49 q 550 49 563 55 q 577 62 589 78 q 602 95 612 124 q 623 153 630 200 q 638 254 638 291 q 638 337 626 358 q 613 379 590 379 z"},"m":{"x_min":0,"x_max":683,"ha":683,"o":"m 264 0 l 314 310 q 315 319 317 331 q 319 343 321 354 q 322 366 323 377 q 324 387 324 395 q 324 431 309 450 q 293 470 259 470 q 236 470 216 457 q 195 445 178 422 q 162 399 150 367 q 138 334 132 295 l 85 0 l 14 0 l 80 416 q 83 432 85 450 l 90 485 l 94 513 q 95 525 96 528 l 164 528 q 164 526 162 515 l 159 490 l 156 462 q 154 448 152 438 l 154 438 q 166 461 179 479 q 191 498 207 511 q 222 524 240 531 q 259 538 283 538 q 331 538 360 509 q 388 479 394 424 q 406 449 420 469 q 434 490 450 505 q 467 521 487 529 q 507 538 533 538 q 587 538 616 502 q 645 466 645 399 q 645 381 642 359 q 640 337 637 319 l 586 0 l 515 0 l 564 310 q 565 319 567 331 q 569 343 571 354 q 572 366 573 377 q 574 387 574 395 q 574 431 559 450 q 544 470 509 470 q 486 470 466 458 q 445 445 429 423 q 413 400 400 368 q 388 336 383 296 l 335 0 z"},"#":{"x_min":0,"x_max":456,"ha":456,"o":"m 371 432 l 339 252 l 444 252 l 444 199 l 331 199 l 295 0 l 251 0 l 286 199 l 140 199 l 106 0 l 62 0 l 96 199 l 16 199 l 16 252 l 105 252 l 137 432 l 36 432 l 36 485 l 146 485 l 181 684 l 226 684 l 190 485 l 335 485 l 371 684 l 415 684 l 379 485 l 464 485 l 464 432 z m 182 432 l 150 252 l 295 252 l 326 432 z"},",":{"x_min":0,"x_max":228,"ha":228,"o":"m 120 25 q 116 -1 110 -22 q 105 -43 98 -62 q 91 -80 83 -96 q 75 -112 64 -128 l 15 -128 q 38 -96 53 -64 q 68 -32 73 0 l 38 0 l 55 107 l 133 107 z"},"n":{"x_min":0,"x_max":456,"ha":456,"o":"m 287 0 l 337 315 q 341 334 343 354 q 345 374 345 388 q 345 427 328 448 q 311 470 273 470 q 248 470 225 457 q 202 445 184 422 q 166 399 152 367 q 139 335 133 296 l 85 0 l 14 0 l 80 416 q 83 432 85 450 l 90 485 l 94 513 q 95 525 96 528 l 164 528 q 164 526 162 515 l 159 490 l 156 462 q 154 448 152 438 l 154 438 q 167 461 182 479 q 196 498 214 511 q 231 524 252 531 q 273 538 300 538 q 359 538 389 502 q 419 466 419 399 q 419 381 416 359 q 414 337 411 319 l 359 0 z"},"h":{"x_min":0,"x_max":456,"ha":456,"o":"m 153 438 q 167 461 181 479 q 196 498 213 511 q 230 524 251 531 q 272 538 299 538 q 358 538 388 502 q 418 466 418 399 q 418 381 416 359 q 413 337 410 319 l 359 0 l 287 0 l 337 315 q 340 334 342 354 q 344 374 344 388 q 344 427 327 448 q 311 470 272 470 q 247 470 224 457 q 202 445 183 422 q 165 399 152 367 q 139 335 132 296 l 85 0 l 14 0 l 129 725 l 201 725 l 171 536 q 168 520 166 504 q 163 488 160 474 q 157 461 155 451 q 153 441 152 438 z"},"z":{"x_min":0,"x_max":410,"ha":410,"o":"m -18 0 l -7 67 l 312 460 l 72 460 l 83 528 l 413 528 l 402 461 l 82 68 l 354 68 l 343 0 z"},"B":{"x_min":0,"x_max":547,"ha":547,"o":"m 134 688 l 339 688 q 380 688 414 677 q 447 667 470 646 q 494 626 506 597 q 519 567 519 531 q 519 459 485 418 q 450 377 383 363 q 412 357 433 344 q 455 330 470 311 q 484 291 492 267 q 499 242 499 214 q 499 174 490 142 q 481 110 464 86 q 448 62 426 46 q 403 30 377 20 q 351 9 322 5 q 293 0 264 0 l 25 0 z m 165 396 l 297 396 q 369 396 404 427 q 439 459 439 521 q 439 568 412 591 q 384 613 332 613 l 199 613 z m 113 75 l 261 75 q 292 75 321 81 q 351 86 373 102 q 396 118 409 145 q 423 172 423 216 q 423 268 391 295 q 359 323 299 323 l 153 323 z"},"K":{"x_min":0,"x_max":547,"ha":547,"o":"m 409 0 l 220 329 l 144 266 l 102 0 l 25 0 l 134 688 l 211 688 l 157 351 l 212 414 l 479 688 l 577 688 l 277 380 l 500 0 z"},"R":{"x_min":0,"x_max":592,"ha":592,"o":"m 420 0 l 323 286 l 147 286 l 102 0 l 25 0 l 134 688 l 379 688 q 421 688 455 676 q 490 663 514 640 q 539 616 553 583 q 566 549 566 507 q 566 416 523 362 q 480 308 396 294 l 503 0 z m 343 359 q 415 359 452 396 q 489 433 489 500 q 489 555 459 584 q 429 613 370 613 l 199 613 l 159 359 z"},"T":{"x_min":0,"x_max":501,"ha":501,"o":"m 344 612 l 246 0 l 170 0 l 268 612 l 74 612 l 86 688 l 549 688 l 538 612 z"},"P":{"x_min":0,"x_max":547,"ha":547,"o":"m 341 688 q 388 688 425 675 q 461 662 488 637 q 514 613 528 577 q 542 542 542 498 q 542 444 526 402 q 510 359 481 329 q 451 300 409 284 q 367 268 314 268 l 144 268 l 102 0 l 25 0 l 134 688 z m 156 342 l 311 342 q 388 342 426 380 q 464 418 464 494 q 464 525 455 548 q 446 570 429 585 q 413 600 390 606 q 367 613 339 613 l 199 613 z"},"|":{"x_min":0,"x_max":213,"ha":213,"o":"m 85 -222 l 85 725 l 152 725 l 152 -222 z"},"t":{"x_min":0,"x_max":228,"ha":228,"o":"m 180 2 q 165 -2 147 -6 q 129 -10 110 -10 q 76 -10 57 15 q 37 40 37 81 q 37 97 39 115 q 42 132 43 145 l 94 464 l 43 464 l 54 528 l 105 528 l 147 646 l 195 646 l 176 528 l 256 528 l 246 464 l 166 464 l 116 149 q 114 140 113 125 q 111 111 111 103 q 111 83 119 71 q 128 60 147 60 q 157 60 166 62 q 175 63 187 67 z"},"M":{"x_min":0,"x_max":683,"ha":683,"o":"m 505 0 l 577 453 q 577 453 585 504 l 594 551 q 598 576 603 600 q 593 574 583 549 q 583 549 563 504 q 554 481 545 463 l 326 0 l 276 0 l 202 463 q 199 478 196 501 l 191 546 l 186 600 q 186 600 179 545 q 179 545 172 498 l 166 453 l 93 0 l 25 0 l 135 688 l 229 688 l 305 211 q 306 204 308 187 q 311 171 312 154 q 315 134 317 111 q 317 111 333 152 q 333 152 348 187 l 359 215 l 581 688 l 683 688 l 574 0 z"},"g":{"x_min":0,"x_max":456,"ha":456,"o":"m 159 -208 q 122 -208 94 -198 q 66 -189 47 -173 q 28 -157 17 -135 q 6 -112 1 -84 l 67 -64 q 74 -101 97 -121 q 121 -141 161 -141 q 189 -141 211 -132 q 233 -123 249 -104 q 265 -85 276 -56 q 286 -27 292 13 q 292 13 297 41 l 301 68 q 304 83 306 98 l 306 98 q 294 79 282 60 q 269 42 253 27 q 236 13 215 5 q 193 -4 164 -4 q 132 -4 107 10 q 82 23 64 47 q 47 70 37 103 q 28 136 28 175 q 28 199 30 226 q 32 252 37 283 q 57 411 105 474 q 153 538 235 538 q 258 538 279 531 q 299 524 315 511 q 332 499 343 480 q 355 461 360 438 l 361 438 q 363 450 366 465 q 369 480 372 494 l 377 517 q 379 527 380 528 l 449 528 q 448 524 446 514 l 441 488 q 438 474 436 456 l 429 419 l 365 15 q 356 -37 342 -78 q 327 -120 302 -148 q 278 -177 243 -192 q 208 -208 159 -208 z m 104 182 q 104 123 125 92 q 146 61 187 61 q 208 61 230 72 q 252 83 272 108 q 292 132 308 171 q 324 209 333 264 q 336 285 338 306 q 339 328 339 344 q 339 376 332 401 q 325 425 312 441 q 299 457 281 465 q 264 473 243 473 q 218 473 198 464 q 178 455 162 433 q 146 411 134 375 q 122 338 113 283 q 108 254 106 228 q 104 202 104 182 z"},"j":{"x_min":0,"x_max":182,"ha":182,"o":"m 116 641 l 129 725 l 201 725 l 188 641 z m -40 -208 q -54 -208 -67 -205 q -81 -203 -92 -201 l -83 -134 q -77 -135 -67 -137 q -57 -138 -49 -138 q -26 -138 -14 -118 q -1 -97 5 -52 l 98 528 l 170 528 l 75 -65 q 70 -96 62 -122 q 54 -147 41 -167 q 28 -186 8 -197 q -12 -208 -40 -208 z"},"i":{"x_min":0,"x_max":182,"ha":182,"o":"m 115 641 l 128 725 l 201 725 l 187 641 z m 13 0 l 97 528 l 169 528 l 85 0 z"},"y":{"x_min":0,"x_max":410,"ha":410,"o":"m 201 0 q 179 -46 158 -84 q 138 -123 115 -150 q 93 -177 67 -192 q 41 -208 6 -208 q -7 -208 -21 -206 q -35 -204 -46 -201 l -34 -135 q -27 -137 -19 -138 q -10 -139 -3 -139 q 35 -139 64 -108 q 93 -77 121 -17 l 132 6 l 45 528 l 118 528 l 163 236 q 166 221 168 200 l 173 159 l 178 122 q 180 104 180 96 q 184 106 190 122 l 205 154 l 221 190 l 236 226 l 372 528 l 451 528 z"},"@":{"x_min":0,"x_max":832,"ha":832,"o":"m 774 369 q 774 298 761 240 q 748 182 724 140 q 700 98 667 74 q 635 51 596 51 q 573 51 557 57 q 542 64 532 75 q 522 87 517 103 q 513 118 513 137 q 513 144 513 155 q 514 165 514 171 l 511 171 q 501 149 488 127 q 474 105 456 89 q 437 72 414 61 q 390 51 362 51 q 328 51 303 65 q 278 79 262 104 q 246 129 238 164 q 229 198 229 239 q 229 297 244 351 q 258 405 285 447 q 311 488 348 513 q 385 538 431 538 q 455 538 474 531 q 493 524 508 513 q 522 501 533 485 q 544 468 551 449 l 554 449 l 569 527 l 631 527 l 585 280 q 577 239 574 209 q 570 180 570 156 q 570 133 579 122 q 587 110 603 110 q 627 110 649 130 q 670 150 686 185 q 702 219 711 266 q 720 313 720 368 q 720 431 703 485 q 687 539 655 579 q 623 618 575 641 q 527 663 465 663 q 411 663 366 647 q 320 632 283 604 q 247 575 219 536 q 191 497 172 450 q 153 403 144 350 q 134 296 134 240 q 134 171 151 113 q 168 55 201 13 q 234 -29 283 -52 q 332 -76 395 -76 q 437 -76 473 -68 q 510 -60 540 -48 q 571 -36 595 -22 q 619 -8 636 3 l 658 -51 q 638 -66 611 -81 q 584 -97 551 -109 q 518 -122 479 -130 q 439 -138 395 -138 q 319 -138 260 -110 q 201 -82 160 -32 q 120 19 99 88 q 78 157 78 240 q 78 308 90 370 q 103 433 126 486 q 150 540 184 584 q 218 628 261 659 q 304 690 355 708 q 406 725 464 725 q 544 725 603 696 q 661 667 699 618 q 738 569 756 505 q 774 440 774 369 z m 532 365 q 532 389 525 410 q 518 430 506 445 q 493 459 475 468 q 458 476 435 476 q 401 476 375 455 q 349 434 331 400 q 314 367 305 324 q 296 282 296 240 q 296 181 315 148 q 334 115 374 115 q 401 115 425 130 q 449 145 469 170 q 488 195 502 227 q 516 260 522 294 q 526 312 529 331 q 532 351 532 365 z"},".":{"x_min":0,"x_max":228,"ha":228,"o":"m 32 0 l 49 107 l 127 107 l 110 0 z"},"p":{"x_min":0,"x_max":456,"ha":456,"o":"m 222 -10 q 172 -10 141 16 q 110 41 98 87 l 96 87 q 96 86 95 77 q 94 69 93 56 l 89 28 q 86 13 84 -1 l 51 -208 l -21 -208 l 79 420 q 83 439 85 457 q 87 475 89 489 q 91 503 92 514 q 93 524 93 528 l 160 528 q 160 524 160 516 q 159 507 158 496 q 157 485 156 473 q 155 460 153 450 l 155 450 q 169 473 184 489 q 199 506 216 517 q 233 528 253 533 q 272 538 297 538 q 329 538 354 526 q 378 514 395 491 q 412 469 421 437 q 430 405 430 365 q 430 341 428 312 q 426 283 421 252 q 411 183 393 133 q 375 83 350 52 q 326 20 293 5 q 261 -10 222 -10 z m 276 470 q 250 470 227 461 q 204 452 185 429 q 165 406 150 368 q 135 329 125 271 q 118 223 118 184 q 118 153 125 129 q 132 104 144 88 q 157 72 175 63 q 192 55 214 55 q 239 55 259 64 q 279 73 295 95 q 312 118 324 155 q 336 192 345 249 q 354 308 354 350 q 354 410 336 440 q 317 470 276 470 z"},"X":{"x_min":0,"x_max":547,"ha":547,"o":"m 400 0 l 279 296 l 69 0 l -16 0 l 246 364 l 110 688 l 190 688 l 298 419 l 488 688 l 572 688 l 333 358 l 479 0 z"},"*":{"x_min":0,"x_max":319,"ha":319,"o":"m 217 544 l 323 594 l 341 530 l 228 494 l 302 372 l 254 337 l 194 463 l 132 338 l 84 373 l 160 494 l 48 530 l 66 595 l 173 543 l 168 688 l 223 688 z"},"Y":{"x_min":0,"x_max":547,"ha":547,"o":"m 314 285 l 269 0 l 193 0 l 239 285 l 85 688 l 164 688 l 286 359 l 510 688 l 596 688 z"},"c":{"x_min":0,"x_max":410,"ha":410,"o":"m 188 60 q 210 60 228 68 q 246 76 260 90 q 274 105 285 126 q 296 146 304 172 l 366 148 q 355 111 339 82 q 322 53 300 33 q 278 12 250 1 q 221 -10 186 -10 q 145 -10 115 5 q 84 21 65 48 q 46 75 36 112 q 27 149 27 193 q 27 212 28 235 q 30 258 33 280 q 42 334 56 375 q 70 415 87 443 q 104 472 124 490 q 144 509 165 519 q 186 530 207 534 q 229 538 250 538 q 286 538 313 527 q 340 516 359 495 q 378 475 388 446 q 399 417 401 383 l 330 371 q 329 393 323 411 q 318 429 308 442 q 297 455 282 462 q 268 469 248 469 q 220 469 198 459 q 176 450 159 428 q 142 406 129 370 q 117 335 108 284 q 104 260 103 234 q 101 208 101 190 q 101 128 121 94 q 142 60 188 60 z"},"!":{"x_min":0,"x_max":228,"ha":228,"o":"m 132 194 l 73 194 l 142 688 l 220 688 z m 31 0 l 47 98 l 125 98 l 108 0 z"},"/":{"x_min":0,"x_max":228,"ha":228,"o":"m -46 -10 l 235 725 l 298 725 l 18 -10 z"},"[":{"x_min":0,"x_max":228,"ha":228,"o":"m -16 -208 l 133 725 l 296 725 l 286 662 l 192 662 l 63 -145 l 157 -145 l 147 -208 z"},"6":{"x_min":0,"x_max":456,"ha":456,"o":"m 214 -10 q 174 -10 143 8 q 112 25 90 57 q 69 88 57 132 q 46 175 46 227 q 46 253 48 286 q 50 318 55 349 q 70 441 95 507 q 121 573 153 616 q 186 658 225 678 q 264 698 305 698 q 332 698 356 691 q 380 683 400 667 q 419 650 434 624 q 448 599 456 562 l 390 544 q 380 584 357 605 q 334 627 301 627 q 270 627 242 610 q 215 593 192 559 q 169 524 151 473 q 134 422 123 354 q 147 398 184 422 q 220 445 266 445 q 299 445 327 432 q 355 419 375 395 q 396 371 408 336 q 419 302 419 260 q 419 206 405 157 q 391 108 364 71 q 337 34 299 12 q 261 -10 214 -10 z m 115 206 q 115 176 122 149 q 128 123 141 103 q 154 83 173 72 q 191 61 215 61 q 244 61 268 76 q 292 91 309 117 q 326 143 335 178 q 345 214 345 255 q 345 311 321 344 q 297 377 252 377 q 231 377 207 368 q 182 359 162 339 q 142 318 128 286 q 115 253 115 206 z"},"r":{"x_min":0,"x_max":273,"ha":273,"o":"m 288 458 q 281 460 271 462 q 262 464 251 464 q 226 464 206 446 q 185 428 170 400 q 154 373 144 339 q 134 306 130 275 l 85 0 l 14 0 l 79 405 q 82 422 84 439 l 88 473 l 92 503 l 96 528 l 164 528 q 163 518 161 503 l 157 473 l 153 444 q 151 430 150 420 l 151 420 q 164 451 176 473 q 188 495 201 510 q 214 524 229 531 q 245 538 263 538 q 267 538 272 537 q 277 537 283 536 q 288 535 293 533 q 298 532 301 531 z"},"2":{"x_min":0,"x_max":456,"ha":456,"o":"m -5 0 l 5 62 q 27 107 54 143 q 81 179 111 208 q 141 237 171 261 l 230 307 q 259 329 284 351 q 309 373 328 398 q 347 423 357 452 q 368 482 368 519 q 368 544 362 564 q 355 583 343 597 q 331 611 313 619 q 296 626 276 626 q 232 626 200 597 q 167 568 152 510 l 84 528 q 94 565 111 596 q 127 627 151 650 q 175 673 207 686 q 239 698 280 698 q 316 698 346 686 q 376 674 398 651 q 419 628 432 597 q 444 565 444 526 q 444 485 432 450 q 420 415 400 385 q 380 354 354 328 q 328 302 298 277 l 238 229 q 208 206 180 182 q 152 157 129 131 q 105 105 89 75 l 380 75 l 368 0 z"},"{":{"x_min":0,"x_max":274,"ha":274,"o":"m 146 -208 q 123 -208 105 -198 q 86 -189 74 -173 q 62 -157 56 -134 q 50 -112 50 -85 q 50 -80 50 -72 q 50 -64 51 -57 q 51 -49 52 -41 q 53 -34 54 -28 l 76 112 q 80 133 80 149 q 80 190 61 208 q 42 226 8 228 l 19 290 q 39 291 56 297 q 73 304 86 318 q 100 332 109 353 q 118 375 123 405 l 151 582 q 162 651 192 688 q 223 725 279 725 l 333 725 l 324 662 l 298 662 q 279 662 265 655 q 251 649 241 636 q 231 624 225 604 q 219 584 214 557 l 187 383 q 183 358 173 338 q 164 317 151 302 q 139 286 123 275 q 106 265 89 260 l 89 259 q 117 250 133 226 q 149 202 149 164 q 149 150 147 135 l 123 -21 q 123 -21 121 -36 q 120 -44 119 -52 q 119 -61 118 -68 q 117 -75 117 -81 q 116 -110 131 -127 q 145 -145 176 -145 l 195 -145 l 185 -208 z"},"9":{"x_min":0,"x_max":456,"ha":456,"o":"m 359 334 q 334 288 301 261 q 267 235 224 235 q 185 235 155 251 q 125 267 105 294 q 85 321 75 356 q 65 392 65 430 q 65 485 80 534 q 95 583 122 619 q 149 656 188 677 q 226 698 273 698 q 311 698 342 683 q 373 668 394 638 q 416 609 427 566 q 439 523 439 467 q 439 454 438 438 q 438 421 436 403 q 435 385 433 367 q 431 348 428 332 q 414 240 388 175 q 362 110 329 69 q 297 28 259 9 q 221 -10 181 -10 q 117 -10 80 25 q 42 61 28 125 l 91 147 q 101 106 125 83 q 148 61 185 61 q 217 61 244 79 q 271 97 293 132 q 315 167 332 218 q 348 269 359 334 z m 371 497 q 371 525 364 549 q 357 573 344 590 q 331 607 312 617 q 294 627 271 627 q 243 627 218 614 q 194 600 176 575 q 158 550 148 513 q 139 476 139 429 q 139 398 146 375 q 152 352 165 336 q 177 320 194 312 q 211 304 232 304 q 252 304 274 312 q 295 321 313 338 q 332 355 346 381 q 360 407 366 443 q 371 473 371 497 z"}," ":{"x_min":0,"x_max":228,"ha":228,"o":""},"I":{"x_min":0,"x_max":228,"ha":228,"o":"m 32 0 l 142 688 l 219 688 l 109 0 z"},"H":{"x_min":0,"x_max":592,"ha":592,"o":"m 409 0 l 459 319 l 152 319 l 102 0 l 25 0 l 135 688 l 211 688 l 165 397 l 472 397 l 518 688 l 593 688 l 483 0 z"},"4":{"x_min":0,"x_max":456,"ha":456,"o":"m 339 156 l 314 0 l 242 0 l 267 156 l 5 156 l 16 224 l 344 688 l 424 688 l 350 225 l 425 225 l 414 156 z m 331 565 l 91 225 l 278 225 z"},"~":{"x_min":0,"x_max":479,"ha":479,"o":"m 350 270 q 322 270 293 281 q 264 292 235 304 q 183 326 148 326 q 133 326 120 323 q 107 320 95 315 q 83 309 72 301 q 61 293 49 283 l 49 353 q 69 372 95 383 q 122 394 154 394 q 171 394 187 391 q 202 388 218 383 q 233 378 248 372 l 278 359 q 278 359 296 352 q 306 348 316 344 q 327 341 337 339 q 347 337 356 337 q 384 337 409 349 q 433 361 454 382 l 454 309 q 442 298 430 291 q 418 283 406 279 q 393 274 380 272 q 366 270 350 270 z"},"D":{"x_min":0,"x_max":592,"ha":592,"o":"m 298 688 q 357 688 406 669 q 456 649 491 611 q 526 573 546 517 q 565 460 565 386 q 565 321 553 268 q 540 214 517 171 q 495 128 463 96 q 432 64 395 42 q 358 21 316 10 q 274 0 230 0 l 25 0 l 134 688 z m 113 75 l 227 75 q 286 75 334 96 q 382 118 417 158 q 451 198 469 256 q 488 314 488 387 q 488 446 473 488 q 458 531 433 559 q 407 586 372 600 q 337 613 296 613 l 199 613 z"},"^":{"x_min":0,"x_max":385,"ha":385,"o":"m 327 329 l 204 638 l 81 329 l 16 329 l 164 688 l 245 688 l 393 329 z"},"0":{"x_min":0,"x_max":456,"ha":456,"o":"m 293 698 q 325 698 354 685 q 383 671 404 644 q 425 616 437 573 q 449 530 449 471 q 449 440 447 403 q 445 365 438 325 q 422 226 396 161 q 369 96 336 58 q 303 21 266 5 q 228 -10 190 -10 q 157 -10 129 5 q 101 20 80 49 q 59 78 47 123 q 36 167 36 227 q 36 243 36 259 q 37 274 38 290 q 39 306 41 324 q 43 342 46 364 q 57 433 73 485 q 89 536 108 573 q 127 611 150 635 q 172 659 196 673 q 219 687 244 693 q 269 698 293 698 z m 197 62 q 227 62 253 75 q 278 88 300 120 q 321 151 338 204 q 355 256 367 334 q 374 376 377 411 q 379 446 379 475 q 379 551 355 589 q 332 627 288 627 q 258 627 232 614 q 207 601 185 569 q 164 538 147 485 q 130 433 118 354 q 111 313 108 278 q 105 243 105 214 q 105 138 129 100 q 153 62 197 62 z"},"F":{"x_min":0,"x_max":501,"ha":501,"o":"m 199 612 l 158 356 l 477 356 l 464 279 l 146 279 l 102 0 l 25 0 l 135 688 l 540 688 l 527 612 z"},"`":{"x_min":0,"x_max":273,"ha":273,"o":"m 165 586 l 52 722 l 54 736 l 137 736 l 201 596 l 200 586 z"},"k":{"x_min":0,"x_max":410,"ha":410,"o":"m 289 0 l 182 245 l 114 185 l 85 0 l 14 0 l 129 725 l 201 725 l 129 277 l 211 370 l 355 528 l 445 528 l 232 301 l 367 0 z"},"u":{"x_min":0,"x_max":456,"ha":456,"o":"m 166 528 l 116 213 q 112 194 110 175 q 108 155 108 140 q 108 102 125 80 q 142 59 180 59 q 206 59 228 71 q 251 83 270 106 q 288 129 301 161 q 314 193 320 232 l 368 528 l 439 528 l 373 113 q 370 96 368 78 l 363 43 l 359 15 q 358 3 357 0 l 290 0 q 290 2 291 13 l 294 38 q 295 52 297 66 q 299 81 301 90 l 299 90 q 286 67 271 49 q 257 30 240 17 q 222 4 201 -2 q 180 -9 153 -9 q 94 -9 64 26 q 35 62 35 129 q 35 147 37 169 q 40 191 43 209 l 94 528 z"},"]":{"x_min":0,"x_max":228,"ha":228,"o":"m -68 -208 l -58 -145 l 35 -145 l 164 662 l 70 662 l 81 725 l 244 725 l 95 -208 z"},"U":{"x_min":0,"x_max":592,"ha":592,"o":"m 262 -10 q 220 -10 184 3 q 147 17 120 44 q 92 71 77 113 q 61 154 61 210 q 61 221 62 234 q 63 248 64 261 q 65 275 67 288 q 69 301 70 310 l 130 688 l 207 688 l 142 276 q 139 259 137 240 q 135 221 135 207 q 135 170 145 144 q 155 118 173 100 q 190 83 215 74 q 239 66 268 66 q 303 66 333 77 q 362 87 386 111 q 410 134 427 172 q 444 210 453 264 l 520 688 l 596 688 l 528 259 q 517 190 494 139 q 471 89 437 56 q 402 22 358 6 q 314 -10 262 -10 z"},"o":{"x_min":0,"x_max":456,"ha":456,"o":"m 430 333 q 430 308 428 282 q 425 257 419 228 q 407 164 386 118 q 365 73 336 44 q 307 16 272 3 q 237 -10 197 -10 q 158 -10 127 5 q 96 19 73 47 q 51 74 39 114 q 27 154 27 205 q 27 228 29 252 q 31 276 36 303 q 47 364 68 408 q 88 453 116 481 q 144 510 179 524 q 215 538 257 538 q 299 538 332 524 q 364 510 386 484 q 408 458 419 420 q 430 382 430 333 z m 355 333 q 355 371 349 397 q 342 424 329 441 q 316 458 298 465 q 279 473 256 473 q 235 473 214 467 q 192 461 173 442 q 153 424 137 390 q 121 355 110 299 q 105 272 103 248 q 101 224 101 203 q 101 163 109 135 q 116 106 130 89 q 143 71 161 63 q 179 55 201 55 q 223 55 244 61 q 265 67 283 86 q 302 104 318 139 q 334 174 345 231 q 350 260 352 285 q 354 309 355 333 z"},"N":{"x_min":0,"x_max":592,"ha":592,"o":"m 395 0 l 183 591 q 180 568 177 545 q 177 545 172 502 q 169 479 166 460 l 93 0 l 25 0 l 134 688 l 219 688 l 433 95 q 436 116 438 139 l 443 184 q 447 208 451 233 l 523 688 l 592 688 l 483 0 z"},"+":{"x_min":0,"x_max":479,"ha":479,"o":"m 281 297 l 281 88 l 222 88 l 222 297 l 52 297 l 52 368 l 222 368 l 222 577 l 281 577 l 281 368 l 451 368 l 451 297 z"},"G":{"x_min":0,"x_max":638,"ha":638,"o":"m 557 103 q 534 79 508 59 q 482 38 450 23 q 418 8 381 -1 q 343 -10 297 -10 q 232 -10 184 11 q 136 33 104 71 q 72 109 56 162 q 41 215 41 280 q 41 372 64 448 q 88 525 132 581 q 176 636 238 667 q 301 698 378 698 q 431 698 469 685 q 507 672 534 649 q 561 627 578 598 q 594 568 603 536 l 525 510 q 520 533 508 553 q 497 573 479 589 q 461 604 435 613 q 409 622 374 622 q 312 622 265 596 q 217 571 185 525 q 152 479 136 417 q 119 355 119 282 q 119 234 130 195 q 141 155 163 127 q 185 98 219 82 q 253 66 300 66 q 336 66 366 73 q 396 81 421 92 q 445 103 463 116 q 481 130 493 142 l 514 266 l 345 266 l 358 344 l 597 344 z"},"q":{"x_min":0,"x_max":456,"ha":456,"o":"m 161 -10 q 128 -10 104 2 q 79 14 62 37 q 45 59 37 91 q 28 123 28 163 q 28 185 30 215 q 31 245 36 276 q 47 345 64 395 q 82 444 107 476 q 132 508 164 523 q 196 538 235 538 q 285 538 316 512 q 347 487 359 441 l 361 441 q 363 453 366 468 q 369 483 372 496 l 377 521 q 379 531 381 535 l 451 535 q 449 527 442 492 q 435 457 424 391 l 329 -208 l 257 -208 l 291 7 q 293 20 295 32 q 297 45 299 55 q 301 67 304 78 l 302 78 q 288 55 273 39 q 258 22 241 11 q 224 0 204 -5 q 185 -10 161 -10 z m 181 58 q 207 58 230 67 q 253 76 273 99 q 292 122 307 160 q 322 199 332 257 q 339 305 339 344 q 339 375 333 399 q 326 423 313 440 q 300 456 282 464 q 265 473 243 473 q 219 473 198 464 q 178 455 162 432 q 146 410 133 373 q 121 335 112 279 q 103 220 103 178 q 103 118 122 88 q 140 58 181 58 z"},"d":{"x_min":0,"x_max":456,"ha":456,"o":"m 161 -10 q 128 -10 104 2 q 79 14 62 37 q 45 59 37 91 q 28 123 28 163 q 28 185 30 215 q 31 245 36 276 q 47 345 64 395 q 82 444 107 476 q 132 508 164 523 q 196 538 235 538 q 285 538 316 512 q 347 487 359 441 l 361 441 q 362 446 364 457 q 366 468 367 481 q 369 493 371 504 q 373 516 373 520 l 406 725 l 478 725 l 379 109 q 376 90 374 72 l 369 40 q 367 25 366 15 l 364 0 l 295 0 q 295 10 298 31 q 300 53 304 78 l 302 78 q 287 55 272 39 q 257 22 240 11 q 224 0 204 -5 q 185 -10 161 -10 z m 181 58 q 207 58 230 67 q 253 76 273 99 q 292 122 307 160 q 322 199 332 257 q 339 305 339 344 q 339 375 333 399 q 326 423 313 440 q 300 456 282 464 q 265 473 243 473 q 219 473 198 464 q 178 455 162 432 q 146 410 133 373 q 121 335 112 279 q 103 220 103 178 q 103 118 122 88 q 140 58 181 58 z"},"1":{"x_min":0,"x_max":456,"ha":456,"o":"m 21 0 l 33 75 l 177 75 l 260 597 l 116 488 l 130 576 l 281 688 l 347 688 l 250 75 l 387 75 l 375 0 z"},"5":{"x_min":0,"x_max":456,"ha":456,"o":"m 137 688 l 458 688 l 446 613 l 191 613 l 146 395 q 153 403 164 411 q 175 418 189 425 q 203 431 220 435 q 237 439 257 439 q 292 439 323 426 q 353 413 375 388 q 396 364 409 328 q 421 292 421 247 q 421 189 407 142 q 393 94 365 61 q 337 27 296 9 q 255 -10 202 -10 q 160 -10 128 2 q 97 15 75 36 q 54 58 40 87 q 26 116 19 151 l 83 172 q 88 152 96 133 q 105 113 119 97 q 134 82 155 72 q 177 62 206 62 q 237 62 263 73 q 289 83 307 105 q 325 127 335 160 q 345 193 345 237 q 345 270 336 294 q 328 319 314 335 q 301 351 282 359 q 264 367 243 367 q 205 367 178 353 q 151 339 130 318 l 60 318 z"}}}
